<?xml version="1.0" encoding="UTF-8"?>
<svg xmlns="http://www.w3.org/2000/svg" version="1.1" viewBox="0 0 60 40">
  <defs>
    <style>
      .cls-1 {
        fill: #fff;
      }
    </style>
  </defs>
  <!-- Generator: Adobe Illustrator 28.7.1, SVG Export Plug-In . SVG Version: 1.2.0 Build 142)  -->
  <g>
    <g id="Capa_1">
      <g>
        <path class="cls-1" d="M48.6,37.2h-4.5c-.2-.5-.3-.9-.5-1.4-.5-1.3-1.4-2.2-2.7-2.6-.6-.2-1.3-.4-1.9-.5v-.4c0-9.7,0-19.4,0-29.1,0-.1,0-.2,0-.4,1.3,0,2.6,0,3.9,0,0,.1,0,.3,0,.4,0,8.9,0,17.8,0,26.6,0,.3,0,.4.3.5.7.4,1.3.9,1.8,1.5.4.5.7,1.1,1,1.6.2.3.4.3.6,0,0-.1.2-.3.3-.5.6-1.1,1.4-2,2.5-2.6.3-.2.3-.3.3-.6,0-8.9,0-17.7,0-26.6,0-.1,0-.3,0-.4,1.3,0,2.6,0,3.9,0,0,0,0,.2,0,.3,0,9.7,0,19.5,0,29.2v.3c-.5.1-1,.2-1.4.4-2.1.6-3.1,2.2-3.7,4.2Z"/>
        <path class="cls-1" d="M36.8,2.8v4h-5.1c0,.1,0,.3,0,.4,0,9.9,0,19.8,0,29.6,0,.1,0,.2,0,.3h-3.8c0-.1,0-.2,0-.4,0-9.8,0-19.7,0-29.5s0-.3,0-.4h-5.2c0-1.4,0-2.7,0-4,4.7,0,9.4,0,14.1,0Z"/>
        <path class="cls-1" d="M20.3,2.8v4h-5.2v.4c0,9.8,0,19.7,0,29.5,0,.1,0,.3,0,.4h-3.8V6.9c-.2,0-.3,0-.4,0-1.6,0-3.1,0-4.7,0,0-1.3,0-2.7,0-4,3.6,0,7.2,0,10.8,0,1.1,0,2.2,0,3.3,0Z"/>
      </g>
    </g>
  </g>
</svg>